<svg width="24" height="24" viewBox="0 0 24 24" fill="none" xmlns="http://www.w3.org/2000/svg">
<path d="M21 4.1V10.9C21 11.5934 20.8501 11.9494 20.6386 12.1483C20.4196 12.3544 20.0215 12.5 19.27 12.5H15.23C14.4785 12.5 14.0804 12.3544 13.8614 12.1483C13.6499 11.9494 13.5 11.5934 13.5 10.9V4.1C13.5 3.40657 13.6499 3.05057 13.8614 2.85167C14.0804 2.64556 14.4785 2.5 15.23 2.5H19.27C20.0215 2.5 20.4196 2.64556 20.6386 2.85167C20.8501 3.05057 21 3.40657 21 4.1Z" fill="white" stroke="white"/>
<path d="M11 13.1V19.9C11 21.4 10.36 22 8.77 22H4.73C3.14 22 2.5 21.4 2.5 19.9V13.1C2.5 11.6 3.14 11 4.73 11H8.77C10.36 11 11 11.6 11 13.1Z" fill="white"/>
<path d="M21.5 19.9V17.1C21.5 15.6 20.86 15 19.27 15H15.23C13.64 15 13 15.6 13 17.1V19.9C13 21.4 13.64 22 15.23 22H19.27C20.86 22 21.5 21.4 21.5 19.9Z" fill="white"/>
<path d="M11 6.9V4.1C11 2.6 10.36 2 8.77 2H4.73C3.14 2 2.5 2.6 2.5 4.1V6.9C2.5 8.4 3.14 9 4.73 9H8.77C10.36 9 11 8.4 11 6.9Z" fill="white"/>
</svg>
