<svg width="24" height="24" viewBox="0 0 24 24" fill="none" xmlns="http://www.w3.org/2000/svg">
<path d="M18.4864 5.93355L18.6329 6.08H18.84H19.24C19.7022 6.08 20.2625 6.08915 20.7118 6.33757C20.9228 6.45424 21.1112 6.62598 21.2513 6.89263C21.394 7.16407 21.5 7.55964 21.5 8.14C21.5 8.92377 21.3496 9.38056 21.1631 9.65151C20.9865 9.90818 20.7397 10.0528 20.4096 10.1323C20.1777 10.1814 19.9274 10.2 19.64 10.2H4.36C4.06436 10.2 3.80543 10.189 3.57732 10.134L3.57733 10.1339L3.57013 10.1323C3.32695 10.0774 3.13495 9.98442 2.98069 9.82373L2.98077 9.82366L2.97355 9.81644C2.69006 9.53295 2.5 9.05345 2.5 8.14C2.5 7.55963 2.60601 7.16413 2.74876 6.89278C2.88897 6.62624 3.07748 6.45451 3.28904 6.33779C3.73964 6.08918 4.30249 6.08 4.77 6.08H5.17H5.37754L5.52408 5.93303L8.88966 2.55745C8.97814 2.47461 9.10223 2.48271 9.17337 2.55054C9.25654 2.64026 9.2468 2.76609 9.17645 2.83644L6.78645 5.22644L5.93289 6.08H7.14H16.86H18.0671L17.2136 5.22644L14.8276 2.84052C14.7446 2.75203 14.7527 2.62782 14.8205 2.55663C14.9103 2.47346 15.0361 2.4832 15.1064 2.55355L18.4864 5.93355Z" fill="white" stroke="white"/>
<path d="M4.4134 13.0794L4.41336 13.0791C4.36368 12.7761 4.59576 12.5 4.90995 12.5H19.09C19.405 12.5 19.6395 12.7828 19.5791 13.095L19.579 13.0952L18.569 18.3252L18.5688 18.3264C18.3894 19.268 18.1679 20.0327 17.6586 20.5772C17.1696 21.0999 16.3331 21.5 14.7299 21.5H9.11995C7.5614 21.5 6.69053 21.0415 6.16791 20.4606C5.62713 19.8595 5.38895 19.052 5.25345 18.2197L5.2534 18.2194L4.4134 13.0794ZM8.74244 16.1105L8.74239 16.1105L8.7364 16.1164C8.25113 16.6017 8.25113 17.3983 8.7364 17.8836L10.2364 19.3836C10.4851 19.6323 10.8045 19.75 11.1199 19.75C11.435 19.75 11.7365 19.6331 11.9695 19.417C11.9697 19.4168 11.9699 19.4166 11.9702 19.4164L15.2173 16.4191C15.7337 15.9505 15.7622 15.1655 15.301 14.6549L15.3011 14.6548L15.2955 14.6488C14.8303 14.1504 14.0349 14.1132 13.5299 14.5834C13.5296 14.5838 13.5292 14.5841 13.5288 14.5845L11.1639 16.7668L10.5135 16.1164L10.5136 16.1164L10.5075 16.1105C10.0137 15.6332 9.23624 15.6332 8.74244 16.1105Z" fill="white" stroke="white"/>
</svg>
