<svg width="938" height="44" viewBox="0 0 938 44" fill="none" xmlns="http://www.w3.org/2000/svg">
<g clip-path="url(#clip0_30_73)">
<path d="M5.57414 21.4878L0.515479 26.3253L0 44H53.0943H754.661H1049C1047.38 37.0235 1042.47 31.2659 1035.95 28.3013C1021.28 21.6264 999.553 11.0909 985.362 4.93235C976.565 1.11496 965.567 -0.0751369 956.037 0.987094C918.015 5.2252 895.67 24.5158 880.956 30.6475C876.556 32.481 871.705 31.5765 867.283 29.7969L808.406 6.10256C798.197 1.99372 786.592 3.41983 777.68 9.87843L754.658 26.5643C744.256 34.1032 730.354 34.6909 719.354 28.0568L690.94 10.9221C679.542 4.04841 665.08 4.94804 654.621 13.1812L642.753 22.5246C632.11 30.9026 617.346 31.673 605.889 24.4482L585.085 11.3284C575.438 5.24439 563.281 4.75532 553.176 10.0447L523.455 25.6016C512.492 31.3402 499.203 30.2435 489.328 22.7853L481.21 16.6533C468.572 7.10722 450.629 9.36663 440.752 21.748C430.873 34.1309 412.927 36.3891 400.289 26.8394L386.672 16.5507C380.021 11.5251 371.575 9.14749 363.797 12.1469C346.968 18.6364 328.14 31.5 321 31.5C316.044 31.5 305.863 21.0045 295.339 14.2191C287.791 9.35225 278.569 12.007 271.698 17.7906L264.972 23.4516C254.039 32.6544 238.329 33.492 226.479 25.5041L213.743 16.9186C202.435 9.29619 187.539 9.67741 176.636 17.8682L169.483 23.2416C159.192 30.973 145.269 31.7854 134.148 25.3032L121.699 18.0467C110.758 11.6698 96.8849 13.5349 88.017 22.575C76.4674 34.3488 57.5098 34.3711 45.9325 22.6245L45.3932 22.0773C34.5102 11.0352 16.7792 10.7728 5.57414 21.4878Z" fill="#A259FF"/>
</g>
<g clip-path="url(#clip1_30_73)">
<path d="M932.426 21.4878L937.485 26.3253L938 44H884.906H183.339H-111C-109.385 37.0235 -104.473 31.2659 -97.9541 28.3013C-83.2777 21.6264 -61.5526 11.0909 -47.3616 4.93235C-38.5652 1.11496 -27.5734 -0.050362 -18.0309 0.891817C18.0656 4.45578 40.2045 20.1047 54.8207 27.717C60.577 30.7149 67.2379 30.2364 73.2841 27.877L129.729 5.84949C139.87 1.89204 151.328 3.36133 160.142 9.74961L183.342 26.5643C193.744 34.1032 207.646 34.6909 218.646 28.0568L247.06 10.9221C258.458 4.04841 272.92 4.94804 283.379 13.1812L295.247 22.5246C305.89 30.9026 320.654 31.673 332.111 24.4482L352.915 11.3284C362.562 5.24439 374.719 4.75532 384.824 10.0447L414.545 25.6016C425.508 31.3402 438.797 30.2435 448.672 22.7853L456.79 16.6533C469.428 7.10722 487.371 9.36663 497.248 21.748C507.127 34.1309 525.073 36.3891 537.711 26.8394L551.328 16.5507C557.979 11.5251 566.425 9.14749 574.203 12.1469C591.032 18.6364 609.86 31.5 617 31.5C621.956 31.5 632.137 21.0045 642.661 14.2191C650.209 9.35225 659.431 12.007 666.302 17.7906L673.028 23.4516C683.961 32.6544 699.671 33.492 711.521 25.5041L724.257 16.9186C735.565 9.29619 750.461 9.67741 761.364 17.8682L768.517 23.2416C778.808 30.973 792.731 31.7854 803.852 25.3032L816.301 18.0467C827.242 11.6698 841.115 13.5349 849.983 22.575C861.533 34.3488 880.49 34.3711 892.067 22.6245L892.607 22.0773C903.49 11.0352 921.221 10.7728 932.426 21.4878Z" fill="#A259FF"/>
</g>
<defs>
<clipPath id="clip0_30_73">
<rect width="876" height="44" fill="white"/>
</clipPath>
<clipPath id="clip1_30_73">
<rect width="74" height="44" fill="white" transform="matrix(-1 0 0 1 938 0)"/>
</clipPath>
</defs>
</svg>
