<svg width="150" height="48" viewBox="0 0 150 48" fill="none" xmlns="http://www.w3.org/2000/svg">
<g clip-path="url(#clip0_1970_12325)">
<path d="M90.0731 24.1069C89.8007 24.8829 89.501 25.6928 89.174 26.5368C88.847 27.3672 88.4792 28.2044 88.0705 29.0483C87.6755 29.8923 87.2463 30.7363 86.7832 31.5803C86.32 32.4107 85.8227 33.2206 85.2915 34.0102C84.8964 34.6091 84.4877 35.1809 84.0654 35.7254C83.6431 36.2835 83.1799 36.7736 82.6758 37.1955C82.1854 37.6175 81.6405 37.9579 81.0411 38.2165C80.4417 38.4751 79.7605 38.6045 78.9976 38.6045C78.5753 38.6045 78.2007 38.5568 77.8737 38.4615C77.5331 38.3662 77.2471 38.2573 77.0155 38.1348L77.8124 36.1542C78.0031 36.2631 78.2143 36.3516 78.4459 36.4196C78.6911 36.4877 78.9567 36.5217 79.2428 36.5217C79.8831 36.5217 80.4416 36.3516 80.9184 36.0112C81.4089 35.6845 81.8516 35.2353 82.2467 34.6636C81.8108 33.1526 81.4429 31.5122 81.1432 29.7426C80.8435 27.9729 80.646 26.0944 80.5506 24.1069H83.0436C83.0573 24.6787 83.0845 25.3117 83.1254 26.0059C83.1799 26.7002 83.2412 27.4148 83.3093 28.1499C83.391 28.8714 83.4864 29.586 83.5954 30.2939C83.7044 31.0018 83.827 31.6552 83.9632 32.2541C84.3719 31.6007 84.7533 30.9133 85.1075 30.1918C85.4617 29.4703 85.7887 28.7557 86.0884 28.0478C86.3881 27.3263 86.6469 26.6321 86.8649 25.9651C87.0965 25.2844 87.294 24.6651 87.4575 24.1069H90.0731Z" fill="#101515"/>
<path d="M79.3979 26.2918C79.1254 26.1965 78.8325 26.1216 78.5192 26.0672C78.2058 26.0127 77.838 25.9855 77.4157 25.9855C77.1841 25.9855 76.9389 26.0059 76.6801 26.0468C76.4212 26.074 76.2033 26.1148 76.0262 26.1693L73.9623 34.7861H71.4897L73.9418 24.597C74.514 24.4064 75.1339 24.2431 75.8014 24.107C76.4689 23.9572 77.1909 23.8824 77.9674 23.8824C78.1309 23.8824 78.3148 23.896 78.5192 23.9232C78.7235 23.9368 78.9211 23.9572 79.1118 23.9844C79.3161 24.0117 79.5 24.0457 79.6635 24.0865C79.8406 24.1274 79.9905 24.175 80.1131 24.2295L79.3979 26.2918Z" fill="#101515"/>
<path d="M63.8826 35.072C63.2423 35.072 62.6906 34.9699 62.2274 34.7657C61.7643 34.5479 61.3828 34.2552 61.0831 33.8877C60.797 33.5201 60.5859 33.0845 60.4496 32.5808C60.3134 32.0772 60.2453 31.5327 60.2453 30.9473C60.2453 30.0353 60.4019 29.1572 60.7153 28.3133C61.0422 27.4557 61.4986 26.707 62.0844 26.0672C62.6838 25.4138 63.4126 24.8965 64.2709 24.5153C65.1291 24.1206 66.1032 23.9232 67.193 23.9232C67.3293 23.9232 67.4927 23.93 67.6835 23.9436C67.8742 23.9572 68.0853 23.9912 68.3169 24.0457L69.4408 19.3493L72.0156 18.9409L69.216 30.5185C69.1479 30.8316 69.0934 31.1515 69.0526 31.4782C69.0253 31.7913 69.0117 32.0908 69.0117 32.3767C69.0117 32.7442 69.0458 33.1117 69.1139 33.4793C69.182 33.8468 69.291 34.228 69.4408 34.6227L67.2339 34.9495C67.084 34.6636 66.9546 34.3165 66.8456 33.9081C66.5051 34.2076 66.0896 34.4798 65.5991 34.7248C65.1087 34.9563 64.5365 35.072 63.8826 35.072ZM67.8265 26.0467C67.5677 25.9923 67.2543 25.9651 66.8865 25.9651C66.2598 25.9651 65.6877 26.1012 65.17 26.3735C64.6523 26.6321 64.2096 26.986 63.8418 27.4352C63.4739 27.8708 63.1879 28.3745 62.9835 28.9463C62.7928 29.518 62.6974 30.1101 62.6974 30.7227C62.6974 31.0358 62.7247 31.3285 62.7792 31.6007C62.8473 31.873 62.9495 32.1112 63.0857 32.3154C63.2219 32.5196 63.399 32.6829 63.617 32.8055C63.8486 32.928 64.1278 32.9892 64.4548 32.9892C64.8907 32.9892 65.2722 32.9007 65.5991 32.7238C65.9397 32.5468 66.2598 32.3018 66.5596 31.9887C66.5732 31.7028 66.6004 31.4033 66.6413 31.0903C66.6958 30.7772 66.7571 30.4709 66.8252 30.1714L67.8265 26.0467Z" fill="#101515"/>
<path d="M50.7335 24.5562C51.2784 24.3928 51.8983 24.2431 52.593 24.107C53.3014 23.9572 54.0711 23.8824 54.9021 23.8824C56.1555 23.8824 57.075 24.1886 57.6608 24.8012C58.2466 25.4138 58.5395 26.2374 58.5395 27.2719C58.5395 27.5578 58.5122 27.8641 58.4577 28.1908C58.4169 28.5039 58.3624 28.8306 58.2943 29.1709L56.9456 34.7861H54.473L55.74 29.4363C55.8081 29.1369 55.8762 28.8306 55.9443 28.5175C56.0124 28.2044 56.0533 27.9049 56.0669 27.619C56.0805 27.1426 55.9647 26.7478 55.7195 26.4347C55.4879 26.1216 55.0247 25.9651 54.33 25.9651C53.7442 25.9651 53.2401 26.0264 52.8178 26.1489L50.7539 34.7861H48.2813L50.7335 24.5562Z" fill="#101515"/>
<path d="M47.6196 24.1069L46.1075 30.4573C46.0393 30.7704 45.9849 31.0834 45.944 31.3965C45.9167 31.7096 45.9031 32.0227 45.9031 32.3358C45.9031 32.7306 45.9304 33.1185 45.9849 33.4997C46.053 33.8809 46.162 34.2552 46.3118 34.6227L44.1049 34.9494C44.0231 34.7997 43.9482 34.6364 43.8801 34.4594C43.8256 34.2688 43.7711 34.0782 43.7166 33.8877C43.376 34.1599 42.9537 34.4254 42.4497 34.684C41.9456 34.929 41.3598 35.0515 40.6923 35.0515C40.0929 35.0515 39.582 34.9631 39.1597 34.7861C38.7374 34.6091 38.39 34.3709 38.1176 34.0714C37.8587 33.7583 37.668 33.3976 37.5454 32.9892C37.4364 32.5672 37.3819 32.1248 37.3819 31.662C37.3819 31.063 37.4637 30.4164 37.6271 29.7222L38.9758 24.1069H41.4484L40.1201 29.6609C39.943 30.3688 39.8545 30.9473 39.8545 31.3965C39.8545 31.6143 39.8749 31.8185 39.9158 32.0091C39.9567 32.1997 40.0248 32.3698 40.1201 32.5196C40.2291 32.6557 40.3722 32.7646 40.5493 32.8463C40.74 32.928 40.9716 32.9688 41.244 32.9688C41.6936 32.9688 42.0955 32.8803 42.4497 32.7034C42.8039 32.5128 43.1308 32.2609 43.4305 31.9478C43.4714 31.3625 43.5668 30.7635 43.7166 30.151L45.147 24.1069H47.6196Z" fill="#101515"/>
<path d="M34.6311 30.6411C34.5902 30.7908 34.5494 31.0358 34.5085 31.3762C34.4676 31.7165 34.4472 32.0364 34.4472 32.3359C34.4472 32.7306 34.4812 33.1186 34.5494 33.4997C34.6175 33.8673 34.7264 34.2416 34.8763 34.6228L32.6694 34.9495C32.5059 34.6228 32.3765 34.2757 32.2811 33.9081C31.9405 34.2076 31.5182 34.4799 31.0142 34.7249C30.5237 34.9563 29.9652 35.072 29.3385 35.072C28.6983 35.072 28.1465 34.9699 27.6834 34.7657C27.2338 34.5479 26.866 34.2553 26.5799 33.8877C26.2938 33.5066 26.0826 33.0641 25.9464 32.5605C25.8102 32.0568 25.7421 31.5123 25.7421 30.9269C25.7421 29.9332 25.9192 29.0076 26.2734 28.15C26.6276 27.2924 27.118 26.5505 27.7447 25.9243C28.3849 25.2981 29.141 24.808 30.0129 24.4541C30.8848 24.0866 31.8384 23.9028 32.8737 23.9028C33.405 23.9028 33.9363 23.9504 34.4676 24.0457C35.0125 24.1274 35.5575 24.2908 36.1024 24.5358L34.6311 30.6411ZM33.2824 26.0264C33.0236 25.9719 32.7307 25.9447 32.4037 25.9447C31.7907 25.9447 31.2253 26.0808 30.7077 26.3531C30.19 26.6117 29.7404 26.9657 29.359 27.4149C28.9912 27.8505 28.7051 28.3541 28.5007 28.9259C28.2964 29.4976 28.1942 30.0966 28.1942 30.7228C28.1942 31.0359 28.2215 31.3285 28.276 31.6008C28.3304 31.873 28.419 32.1113 28.5416 32.3154C28.6778 32.5196 28.8549 32.683 29.0729 32.8055C29.2909 32.928 29.5701 32.9893 29.9107 32.9893C30.3467 32.9893 30.7281 32.9008 31.055 32.7238C31.3956 32.5332 31.709 32.2814 31.995 31.9683C32.0087 31.6144 32.0359 31.2809 32.0768 30.9678C32.1313 30.6547 32.1994 30.3416 32.2811 30.0285L33.2824 26.0264Z" fill="#101515"/>
<path d="M24.736 32.6217L24.2251 34.7861H15.377L18.7691 20.6357H21.3438L18.4626 32.6217H24.736Z" fill="#101515"/>
<path d="M69.5475 46.747C69.4701 46.5599 69.3658 46.3217 69.2379 46.0326C69.1101 45.7434 68.9721 45.4304 68.8274 45.0936C68.6794 44.7568 68.5246 44.4098 68.3563 44.0559C68.1881 43.6987 68.0333 43.3619 67.8852 43.0455C67.7372 42.7291 67.5992 42.4433 67.4713 42.195C67.3435 41.9432 67.2425 41.7527 67.1651 41.62C67.081 42.542 67.0103 43.5422 66.9565 44.6207C66.9027 45.6957 66.8556 46.7844 66.8185 47.8799H65.7148C65.7451 47.1757 65.7821 46.4646 65.8192 45.7502C65.8562 45.0357 65.9033 44.3281 65.9538 43.6375C66.0042 42.9469 66.0581 42.2698 66.1153 41.6132C66.1725 40.9566 66.2364 40.334 66.3071 39.7455H67.293C67.5016 40.0891 67.7271 40.4973 67.966 40.9668C68.2049 41.4363 68.4472 41.9262 68.6861 42.4399C68.925 42.9537 69.1572 43.464 69.3826 43.9777C69.6081 44.4914 69.8133 44.9575 69.9984 45.3794C70.1835 44.9575 70.3887 44.488 70.6142 43.9777C70.8396 43.464 71.0718 42.9537 71.3107 42.4399C71.5497 41.9262 71.7919 41.4363 72.0308 40.9668C72.2698 40.4973 72.4952 40.0891 72.7038 39.7455H73.6898C73.9522 42.3685 74.1508 45.08 74.282 47.8833H73.1783C73.1379 46.7878 73.0942 45.7026 73.0403 44.6241C72.9865 43.549 72.9158 42.5488 72.8317 41.6234C72.7543 41.7561 72.6534 41.95 72.5255 42.1984C72.3976 42.4501 72.2597 42.7325 72.1116 43.0489C71.9635 43.3653 71.8088 43.7021 71.6405 44.0593C71.4723 44.4166 71.3175 44.7636 71.1694 45.097C71.0214 45.4338 70.8834 45.7468 70.7555 46.036C70.6277 46.3251 70.5267 46.5633 70.4459 46.7504H69.5408L69.5475 46.747Z" fill="#A259FF"/>
<path d="M77.9639 41.6187C78.3979 41.6187 78.7647 41.6765 79.0608 41.7888C79.357 41.901 79.5992 42.0643 79.7809 42.2719C79.9626 42.4794 80.0939 42.7243 80.1713 43.0101C80.2487 43.2959 80.2857 43.6123 80.2857 43.9559V47.773C80.1915 47.79 80.0636 47.8105 79.8953 47.8377C79.7271 47.8649 79.542 47.8921 79.3334 47.9125C79.1248 47.9329 78.8993 47.9568 78.6537 47.9772C78.408 47.9976 78.1691 48.0078 77.9269 48.0078C77.587 48.0078 77.2707 47.9738 76.9847 47.9023C76.6987 47.8309 76.4496 47.722 76.241 47.5689C76.0324 47.4158 75.8709 47.2151 75.7531 46.9633C75.6353 46.7116 75.5781 46.4122 75.5781 46.0584C75.5781 45.7046 75.6454 45.4324 75.78 45.1908C75.9146 44.9493 76.0997 44.752 76.3319 44.6023C76.5641 44.4526 76.8366 44.3437 77.1462 44.2723C77.4558 44.2008 77.7822 44.1668 78.122 44.1668C78.2297 44.1668 78.3441 44.1736 78.4585 44.1838C78.5763 44.194 78.684 44.211 78.7883 44.2315C78.8926 44.2519 78.9834 44.2689 79.0608 44.2859C79.1382 44.3029 79.1921 44.3131 79.2224 44.3199V44.0137C79.2224 43.8334 79.2022 43.6565 79.1652 43.4796C79.1281 43.3027 79.0575 43.1462 78.9565 43.0101C78.8556 42.874 78.7176 42.7618 78.546 42.6801C78.371 42.5985 78.1456 42.5576 77.8663 42.5576C77.5096 42.5576 77.2 42.5848 76.9308 42.6325C76.665 42.6835 76.4631 42.7379 76.3319 42.7924L76.204 41.8874C76.342 41.8262 76.5741 41.7649 76.9005 41.7071C77.2269 41.6493 77.5769 41.6187 77.9571 41.6187H77.9639ZM78.0581 47.0892C78.3138 47.0892 78.5393 47.0824 78.7378 47.0722C78.9363 47.062 79.1012 47.0382 79.2324 47.0076V45.1874C79.1551 45.15 79.0306 45.116 78.8556 45.0888C78.6806 45.0616 78.472 45.048 78.223 45.048C78.0614 45.048 77.8865 45.0582 77.7048 45.082C77.5231 45.1058 77.3548 45.1534 77.2068 45.2283C77.0553 45.3031 76.9308 45.4052 76.8299 45.5345C76.7289 45.6637 76.6785 45.8338 76.6785 46.0448C76.6785 46.436 76.803 46.7082 77.0486 46.8613C77.2976 47.0144 77.6341 47.0892 78.0581 47.0892Z" fill="#A259FF"/>
<path d="M84.2935 41.6375C84.3877 41.6375 84.492 41.6443 84.6131 41.6545C84.7343 41.6647 84.852 41.6817 84.9664 41.7021C85.0809 41.7225 85.1885 41.7429 85.2861 41.7599C85.3837 41.7803 85.4544 41.7974 85.5015 41.8144L85.3164 42.7669C85.2323 42.7363 85.0909 42.6989 84.8924 42.6547C84.6939 42.6105 84.4415 42.59 84.1319 42.59C83.93 42.59 83.7315 42.6105 83.533 42.6547C83.3344 42.6989 83.2066 42.7261 83.1426 42.7431V47.8735H82.0625V42.0253C82.3182 41.93 82.6345 41.8416 83.0148 41.7599C83.395 41.6783 83.819 41.6375 84.2935 41.6375Z" fill="#A259FF"/>
<path d="M87.4947 41.7662H89.7829V42.6813H87.4947V45.4983C87.4947 45.8045 87.5183 46.0562 87.5654 46.2569C87.6125 46.4577 87.6832 46.6142 87.774 46.7264C87.8683 46.8387 87.9827 46.9203 88.124 46.968C88.262 47.0156 88.4268 47.0394 88.6119 47.0394C88.9383 47.0394 89.1974 47.002 89.3959 46.9271C89.5945 46.8523 89.7324 46.8013 89.8098 46.7673L90.0184 47.6722C89.9108 47.7266 89.719 47.7947 89.4498 47.8763C89.1772 47.958 88.8676 47.9988 88.5211 47.9988C88.1105 47.9988 87.7707 47.9444 87.5048 47.8389C87.239 47.7334 87.0237 47.5735 86.8588 47.3626C86.6973 47.1517 86.5829 46.8897 86.5156 46.5801C86.4483 46.2705 86.418 45.9133 86.418 45.5051V40.0583L87.4981 39.8712V41.7628L87.4947 41.7662Z" fill="#A259FF"/>
<path d="M10.4934 47.871H7.1285V29.5473H1.68404C0.937024 29.5473 0.280861 29.0506 0.0688706 28.326C-0.14312 27.6013 0.146264 26.8257 0.772142 26.4174L18.6938 14.7618L20.5142 17.623L7.41116 26.1452H8.81097C9.73969 26.1452 10.4934 26.9073 10.4934 27.8463V47.871Z" fill="#A259FF"/>
<path d="M24.9374 12.5715V10.6663C26.9496 9.95869 28.3965 8.0263 28.3965 5.7537C28.3965 2.88913 26.0916 0.555298 23.2549 0.555298C20.4183 0.555298 18.1133 2.88573 18.1133 5.7537C18.1133 6.69268 18.867 7.45475 19.7958 7.45475C20.7245 7.45475 21.4782 6.69268 21.4782 5.7537C21.4782 4.76369 22.2757 3.95739 23.2549 3.95739C24.2341 3.95739 25.0316 4.76369 25.0316 5.7537C25.0316 6.74371 24.2341 7.55 23.2549 7.55C22.2757 7.55 21.5724 8.31207 21.5724 9.25105V13.4901C21.5724 14.065 21.8585 14.5991 22.3329 14.9121L30.9101 20.5902H37.0545L24.9374 12.5681V12.5715Z" fill="#A259FF"/>
</g>
<rect x="98.0156" y="25.8038" width="51.985" height="22.1962" rx="2.37164" fill="#A259FF"/>
<path d="M107.887 37.6116L105.886 37.6064L106.086 36.4692L107.934 36.4744C108.212 36.4744 108.464 36.4271 108.693 36.3323C108.924 36.234 109.115 36.0901 109.266 35.9006C109.417 35.7075 109.512 35.4671 109.551 35.1793C109.586 34.9371 109.568 34.7213 109.498 34.5317C109.431 34.3387 109.316 34.186 109.151 34.0737C108.989 33.9579 108.782 33.8947 108.529 33.8842L107.008 33.8789L105.876 40.402H104.46L105.786 32.7364L108.571 32.7417C109.052 32.7522 109.48 32.8558 109.856 33.0523C110.235 33.2454 110.526 33.5209 110.73 33.8789C110.934 34.2334 111.014 34.6633 110.972 35.1688C110.927 35.7233 110.756 36.1831 110.461 36.5481C110.167 36.9097 109.793 37.1782 109.34 37.3537C108.887 37.5256 108.403 37.6116 107.887 37.6116ZM113.194 35.9374L112.42 40.402H111.062L112.051 34.7055H113.336L113.194 35.9374ZM115.052 34.6581L114.889 35.9585C114.808 35.9444 114.726 35.9322 114.642 35.9216C114.557 35.9111 114.473 35.9058 114.389 35.9058C114.178 35.9023 113.989 35.9304 113.82 35.9901C113.655 36.0462 113.51 36.1305 113.383 36.2428C113.257 36.3551 113.152 36.492 113.068 36.6534C112.983 36.8114 112.918 36.9886 112.873 37.1852L112.578 37.1483C112.613 36.8746 112.673 36.5885 112.757 36.2902C112.841 35.9883 112.959 35.7075 113.11 35.4478C113.261 35.1881 113.454 34.9792 113.689 34.8213C113.927 34.6598 114.215 34.5809 114.552 34.5844C114.636 34.5844 114.719 34.5914 114.8 34.6054C114.884 34.6195 114.968 34.637 115.052 34.6581ZM114.942 37.6432L114.958 37.5327C115 37.1325 115.096 36.7552 115.247 36.4007C115.402 36.0427 115.603 35.7268 115.853 35.4531C116.105 35.1793 116.404 34.9669 116.748 34.816C117.095 34.6616 117.481 34.5896 117.906 34.6002C118.313 34.6072 118.664 34.6914 118.959 34.8529C119.257 35.0108 119.499 35.2249 119.685 35.4952C119.875 35.7619 120.007 36.0673 120.08 36.4113C120.157 36.7517 120.179 37.1115 120.143 37.4905L120.133 37.6064C120.087 38.003 119.987 38.3785 119.833 38.733C119.678 39.084 119.475 39.3946 119.222 39.6649C118.969 39.9352 118.671 40.1458 118.327 40.2967C117.983 40.4476 117.601 40.5178 117.179 40.5073C116.776 40.5003 116.425 40.4178 116.126 40.2598C115.832 40.1019 115.589 39.8913 115.4 39.6281C115.214 39.3613 115.082 39.0577 115.005 38.7172C114.931 38.3768 114.91 38.0188 114.942 37.6432ZM116.311 37.5327L116.3 37.6485C116.286 37.8275 116.283 38.0188 116.29 38.2223C116.3 38.4259 116.337 38.6172 116.4 38.7962C116.463 38.9752 116.563 39.1226 116.7 39.2385C116.837 39.3508 117.021 39.4104 117.253 39.4175C117.502 39.4245 117.716 39.3753 117.895 39.27C118.078 39.1612 118.229 39.0173 118.348 38.8383C118.467 38.6558 118.562 38.4558 118.632 38.2381C118.703 38.0205 118.75 37.8082 118.775 37.6011L118.785 37.4905C118.803 37.3115 118.806 37.1185 118.796 36.9114C118.785 36.7043 118.748 36.5113 118.685 36.3323C118.622 36.1498 118.522 36.0006 118.385 35.8848C118.248 35.7654 118.062 35.7023 117.827 35.6952C117.578 35.6847 117.362 35.7356 117.179 35.8479C117 35.9602 116.851 36.1077 116.732 36.2902C116.613 36.4727 116.518 36.6745 116.448 36.8956C116.381 37.1132 116.335 37.3256 116.311 37.5327ZM122.581 39.2858L124.571 34.7055H126.029L123.239 40.402H122.349L122.581 39.2858ZM122.349 34.7055L122.934 39.428L122.823 40.402H121.981L120.965 34.7055H122.349ZM128.188 34.7055L127.204 40.402H125.84L126.83 34.7055H128.188ZM126.998 33.2418C126.995 33.0207 127.067 32.8417 127.214 32.7048C127.365 32.5644 127.549 32.4925 127.767 32.489C127.974 32.4855 128.153 32.5486 128.304 32.6785C128.458 32.8049 128.536 32.9769 128.536 33.1945C128.539 33.4121 128.465 33.5893 128.314 33.7262C128.163 33.8631 127.981 33.9333 127.767 33.9368C127.56 33.9403 127.381 33.8789 127.23 33.7525C127.079 33.6262 127.002 33.4559 126.998 33.2418ZM132.016 39.1121L133.195 32.3152H134.564L133.163 40.402H131.937L132.016 39.1121ZM128.736 37.6643L128.746 37.5485C128.788 37.201 128.869 36.85 128.988 36.4955C129.108 36.141 129.271 35.8181 129.478 35.5268C129.689 35.2355 129.945 35.0038 130.247 34.8318C130.548 34.6598 130.905 34.5809 131.315 34.5949C131.673 34.6089 131.97 34.7055 132.205 34.8845C132.44 35.0635 132.623 35.2951 132.753 35.5794C132.886 35.8602 132.977 36.1638 133.026 36.4902C133.076 36.8131 133.093 37.122 133.079 37.4168L133.042 37.7222C132.986 38.0416 132.891 38.368 132.758 38.7014C132.628 39.0314 132.458 39.335 132.247 39.6123C132.037 39.8895 131.786 40.1124 131.494 40.2809C131.203 40.4459 130.873 40.5231 130.505 40.5125C130.126 40.502 129.813 40.409 129.567 40.2335C129.322 40.0545 129.132 39.8246 128.999 39.5438C128.869 39.2595 128.785 38.9542 128.746 38.6277C128.708 38.2978 128.704 37.9767 128.736 37.6643ZM130.115 37.5432L130.104 37.6538C130.087 37.8187 130.078 38.0012 130.078 38.2013C130.078 38.3978 130.101 38.5874 130.147 38.7699C130.196 38.9489 130.282 39.0981 130.405 39.2174C130.527 39.3332 130.699 39.3964 130.92 39.4069C131.194 39.4175 131.433 39.356 131.637 39.2227C131.844 39.0858 132.012 38.9085 132.142 38.6909C132.272 38.4733 132.361 38.2417 132.41 37.996L132.532 37.1641C132.546 36.9992 132.54 36.8324 132.516 36.664C132.491 36.492 132.442 36.3358 132.368 36.1954C132.295 36.0515 132.193 35.9357 132.063 35.8479C131.933 35.7567 131.772 35.7093 131.579 35.7058C131.329 35.6952 131.117 35.7479 130.942 35.8637C130.77 35.976 130.627 36.1252 130.515 36.3112C130.403 36.4937 130.315 36.6938 130.252 36.9114C130.189 37.129 130.143 37.3396 130.115 37.5432ZM136.98 40.5073C136.591 40.5003 136.243 40.4248 135.938 40.2809C135.632 40.137 135.378 39.9404 135.174 39.6912C134.971 39.442 134.822 39.1525 134.727 38.8225C134.636 38.4926 134.604 38.1399 134.632 37.7643L134.653 37.5485C134.692 37.1589 134.785 36.7868 134.932 36.4323C135.083 36.0743 135.283 35.7567 135.532 35.4794C135.785 35.1986 136.082 34.9792 136.422 34.8213C136.766 34.6633 137.147 34.5896 137.565 34.6002C137.961 34.6072 138.298 34.6897 138.576 34.8476C138.853 35.002 139.074 35.2109 139.239 35.4741C139.407 35.7339 139.521 36.0287 139.581 36.3586C139.641 36.6885 139.651 37.0325 139.613 37.3905L139.534 37.9749H135.196L135.348 37.0167L138.312 37.022L138.333 36.9009C138.365 36.6938 138.354 36.499 138.302 36.3165C138.253 36.134 138.16 35.9866 138.023 35.8742C137.889 35.7584 137.709 35.697 137.48 35.69C137.228 35.683 137.014 35.7374 136.838 35.8532C136.663 35.9655 136.517 36.1147 136.401 36.3007C136.289 36.4867 136.201 36.6903 136.138 36.9114C136.075 37.129 136.031 37.3414 136.006 37.5485L135.985 37.759C135.968 37.9556 135.973 38.1504 136.001 38.3434C136.033 38.5365 136.091 38.712 136.175 38.8699C136.263 39.0279 136.384 39.156 136.538 39.2543C136.692 39.3525 136.884 39.4052 137.112 39.4122C137.4 39.4192 137.663 39.3613 137.902 39.2385C138.144 39.1121 138.363 38.9471 138.56 38.7436L139.197 39.4648C139.035 39.7035 138.835 39.9018 138.597 40.0598C138.358 40.2142 138.098 40.3283 137.817 40.402C137.54 40.4757 137.261 40.5108 136.98 40.5073ZM142.129 35.9374L141.355 40.402H139.997L140.987 34.7055H142.271L142.129 35.9374ZM143.988 34.6581L143.825 35.9585C143.744 35.9444 143.661 35.9322 143.577 35.9216C143.493 35.9111 143.409 35.9058 143.324 35.9058C143.114 35.9023 142.924 35.9304 142.756 35.9901C142.591 36.0462 142.445 36.1305 142.319 36.2428C142.192 36.3551 142.087 36.492 142.003 36.6534C141.919 36.8114 141.854 36.9886 141.808 37.1852L141.513 37.1483C141.548 36.8746 141.608 36.5885 141.692 36.2902C141.777 35.9883 141.894 35.7075 142.045 35.4478C142.196 35.1881 142.389 34.9792 142.624 34.8213C142.863 34.6598 143.151 34.5809 143.488 34.5844C143.572 34.5844 143.654 34.5914 143.735 34.6054C143.819 34.6195 143.903 34.637 143.988 34.6581Z" fill="white"/>
<defs>
<clipPath id="clip0_1970_12325">
<rect width="90.1096" height="47.4422" fill="white" transform="translate(0 0.557861)"/>
</clipPath>
</defs>
</svg>
