<svg width="24" height="24" viewBox="0 0 24 24" fill="none" xmlns="http://www.w3.org/2000/svg">
<path opacity="0.3" d="M21.5 11.9C21.5 17.1467 17.2467 21.4 12 21.4C6.75329 21.4 2.5 17.1467 2.5 11.9C2.5 6.65332 6.75329 2.40002 12 2.40002C17.2467 2.40002 21.5 6.65332 21.5 11.9Z" fill="#EC4899" stroke="#EC4899"/>
<path d="M14.0944 12.4718L14.0944 12.4718L14.0964 12.4725C14.453 12.5959 14.8148 12.7706 15.091 13.0795C15.3571 13.3772 15.5853 13.8464 15.59 14.6414C15.5893 15.9102 14.5881 16.92 13.4 16.92H12.75H12.25V17.42V18C12.25 18.1339 12.1339 18.25 12 18.25C11.8661 18.25 11.75 18.1339 11.75 18V17.41V16.91H11.25H10.89C9.54321 16.91 8.42 15.7712 8.42 14.33C8.42 14.1961 8.53615 14.08 8.67 14.08C8.80386 14.08 8.92 14.1961 8.92 14.33C8.92 15.4414 9.77037 16.41 10.89 16.41H11.25H11.75V15.91V12.53V12.1756L11.4156 12.0582L9.90704 11.5287C9.90682 11.5286 9.9066 11.5286 9.90638 11.5285C9.54229 11.3994 9.1778 11.222 8.9015 10.913C8.63565 10.6156 8.41 10.1495 8.41 9.36C8.41 8.09056 9.41147 7.08 10.6 7.08H11.25H11.75V6.58V6C11.75 5.86614 11.8661 5.75 12 5.75C12.1339 5.75 12.25 5.86614 12.25 6V6.58V7.08H12.75H13.11C14.4568 7.08 15.58 8.21877 15.58 9.66C15.58 9.79386 15.4639 9.91 15.33 9.91C15.1961 9.91 15.08 9.79386 15.08 9.66C15.08 8.54858 14.2296 7.58 13.11 7.58H12.75H12.25V8.08V11.47V11.8244L12.5844 11.9418L14.0944 12.4718ZM11.76 8.09V7.59H11.26H10.61C9.64018 7.59 8.92 8.41879 8.92 9.37C8.92 9.85296 9.00384 10.2504 9.25078 10.5542C9.49009 10.8485 9.82239 10.9728 10.0736 11.0615L11.0936 11.4215L11.76 11.6567V10.95V8.09ZM12.25 15.92V16.42H12.75H13.4C14.3673 16.42 15.08 15.5731 15.08 14.63C15.08 14.147 14.9962 13.7496 14.7492 13.4458C14.5099 13.1515 14.1776 13.0272 13.9264 12.9385L13.9264 12.9385L13.9237 12.9376L12.9137 12.5876L12.25 12.3576V13.06V15.92Z" fill="#EC4899" stroke="#EC4899"/>
</svg>
