<svg width="48" height="44" viewBox="0 0 48 44" fill="none" xmlns="http://www.w3.org/2000/svg">
<rect width="48" height="44" rx="8" fill="#F3F4F6"/>
<path d="M19 8C19 6.34 20.34 5 22 5H26C27.66 5 29 6.34 29 8C29 8.55 28.55 9 28 9H20C19.45 9 19 8.55 19 8Z" fill="#1E293B"/>
<path d="M29.75 18C29.75 18.41 29.41 18.75 29 18.75H28V22C28 23.66 26.66 25 25 25H23C21.34 25 20 23.66 20 22V18.75H19C18.59 18.75 18.25 18.41 18.25 18C18.25 17.59 18.59 17.25 19 17.25H29C29.41 17.25 29.75 17.59 29.75 18Z" fill="#1E293B"/>
<path d="M30 10H18C16 10 15 11 15 13V18C15 20 16 21 18 21H18.375C18.7202 21 19 20.7202 19 20.375C19 20.0298 18.7113 19.7604 18.3884 19.6384C17.7262 19.3882 17.25 18.7453 17.25 18C17.25 17.04 18.04 16.25 19 16.25H29C29.96 16.25 30.75 17.04 30.75 18C30.75 18.7453 30.2738 19.3882 29.6116 19.6384C29.2887 19.7604 29 20.0298 29 20.375C29 20.7202 29.2798 21 29.625 21H30C32 21 33 20 33 18V13C33 11 32 10 30 10ZM22 14.75H19C18.59 14.75 18.25 14.41 18.25 14C18.25 13.59 18.59 13.25 19 13.25H22C22.41 13.25 22.75 13.59 22.75 14C22.75 14.41 22.41 14.75 22 14.75Z" fill="#1E293B"/>
<path d="M9.83594 30.8906V38H8.89355V30.8906H9.83594ZM12.3164 33.8447V38H11.4131V32.7168H12.2676L12.3164 33.8447ZM12.1016 35.1582L11.7256 35.1436C11.7288 34.7822 11.7826 34.4486 11.8867 34.1426C11.9909 33.8333 12.1374 33.5648 12.3262 33.3369C12.515 33.109 12.7396 32.9333 13 32.8096C13.2637 32.6826 13.555 32.6191 13.874 32.6191C14.1344 32.6191 14.3688 32.6549 14.5771 32.7266C14.7855 32.7949 14.9629 32.9056 15.1094 33.0586C15.2591 33.2116 15.373 33.4102 15.4512 33.6543C15.5293 33.8952 15.5684 34.1898 15.5684 34.5381V38H14.6602V34.5283C14.6602 34.2516 14.6195 34.0303 14.5381 33.8643C14.4567 33.695 14.3379 33.5729 14.1816 33.498C14.0254 33.4199 13.8333 33.3809 13.6055 33.3809C13.3809 33.3809 13.1758 33.4281 12.9902 33.5225C12.8079 33.6169 12.6501 33.7471 12.5166 33.9131C12.3864 34.0791 12.2839 34.2695 12.209 34.4844C12.1374 34.696 12.1016 34.9206 12.1016 35.1582ZM18.5469 37.1846L19.9922 32.7168H20.915L19.0156 38H18.4102L18.5469 37.1846ZM17.3408 32.7168L18.8301 37.209L18.9326 38H18.3271L16.4131 32.7168H17.3408ZM21.4668 35.417V35.3047C21.4668 34.9238 21.5221 34.5706 21.6328 34.2451C21.7435 33.9163 21.903 33.6315 22.1113 33.3906C22.3197 33.1465 22.5719 32.9577 22.8682 32.8242C23.1644 32.6875 23.4964 32.6191 23.8643 32.6191C24.2354 32.6191 24.569 32.6875 24.8652 32.8242C25.1647 32.9577 25.4186 33.1465 25.627 33.3906C25.8385 33.6315 25.9997 33.9163 26.1104 34.2451C26.221 34.5706 26.2764 34.9238 26.2764 35.3047V35.417C26.2764 35.7979 26.221 36.151 26.1104 36.4766C25.9997 36.8021 25.8385 37.0869 25.627 37.3311C25.4186 37.5719 25.1663 37.7607 24.8701 37.8975C24.5771 38.0309 24.2451 38.0977 23.874 38.0977C23.5029 38.0977 23.1693 38.0309 22.873 37.8975C22.5768 37.7607 22.3229 37.5719 22.1113 37.3311C21.903 37.0869 21.7435 36.8021 21.6328 36.4766C21.5221 36.151 21.4668 35.7979 21.4668 35.417ZM22.3701 35.3047V35.417C22.3701 35.6807 22.401 35.9297 22.4629 36.1641C22.5247 36.3952 22.6175 36.6003 22.7412 36.7793C22.8682 36.9583 23.026 37.0999 23.2148 37.2041C23.4036 37.305 23.6234 37.3555 23.874 37.3555C24.1214 37.3555 24.3379 37.305 24.5234 37.2041C24.7122 37.0999 24.8685 36.9583 24.9922 36.7793C25.1159 36.6003 25.2087 36.3952 25.2705 36.1641C25.3356 35.9297 25.3682 35.6807 25.3682 35.417V35.3047C25.3682 35.0443 25.3356 34.7985 25.2705 34.5674C25.2087 34.333 25.1143 34.1263 24.9873 33.9473C24.8636 33.765 24.7074 33.6217 24.5186 33.5176C24.333 33.4134 24.1149 33.3613 23.8643 33.3613C23.6169 33.3613 23.3988 33.4134 23.21 33.5176C23.0244 33.6217 22.8682 33.765 22.7412 33.9473C22.6175 34.1263 22.5247 34.333 22.4629 34.5674C22.401 34.7985 22.3701 35.0443 22.3701 35.3047ZM28.3906 32.7168V38H27.4824V32.7168H28.3906ZM27.4141 31.3154C27.4141 31.1689 27.458 31.0452 27.5459 30.9443C27.637 30.8434 27.7705 30.793 27.9463 30.793C28.1188 30.793 28.2507 30.8434 28.3418 30.9443C28.4362 31.0452 28.4834 31.1689 28.4834 31.3154C28.4834 31.4554 28.4362 31.5758 28.3418 31.6768C28.2507 31.7744 28.1188 31.8232 27.9463 31.8232C27.7705 31.8232 27.637 31.7744 27.5459 31.6768C27.458 31.5758 27.4141 31.4554 27.4141 31.3154ZM31.9551 37.3555C32.1699 37.3555 32.3685 37.3115 32.5508 37.2236C32.7331 37.1357 32.8828 37.0153 33 36.8623C33.1172 36.7061 33.1839 36.5286 33.2002 36.3301H34.0596C34.0433 36.6426 33.9375 36.9339 33.7422 37.2041C33.5501 37.471 33.2979 37.6875 32.9854 37.8535C32.6729 38.0163 32.3294 38.0977 31.9551 38.0977C31.5579 38.0977 31.2113 38.0277 30.915 37.8877C30.6221 37.7477 30.3779 37.5557 30.1826 37.3115C29.9906 37.0674 29.8457 36.7874 29.748 36.4717C29.6536 36.1527 29.6064 35.8158 29.6064 35.4609V35.2559C29.6064 34.901 29.6536 34.5658 29.748 34.25C29.8457 33.931 29.9906 33.6494 30.1826 33.4053C30.3779 33.1611 30.6221 32.9691 30.915 32.8291C31.2113 32.6891 31.5579 32.6191 31.9551 32.6191C32.3685 32.6191 32.7298 32.7038 33.0391 32.873C33.3483 33.0391 33.5908 33.2669 33.7666 33.5566C33.9456 33.8431 34.0433 34.1686 34.0596 34.5332H33.2002C33.1839 34.3151 33.1221 34.1182 33.0146 33.9424C32.9105 33.7666 32.7673 33.6266 32.585 33.5225C32.4059 33.415 32.196 33.3613 31.9551 33.3613C31.6784 33.3613 31.4456 33.4167 31.2568 33.5273C31.0713 33.6348 30.9232 33.7812 30.8125 33.9668C30.7051 34.1491 30.627 34.3525 30.5781 34.5771C30.5326 34.7985 30.5098 35.0247 30.5098 35.2559V35.4609C30.5098 35.6921 30.5326 35.9199 30.5781 36.1445C30.6237 36.3691 30.7002 36.5726 30.8076 36.7549C30.9183 36.9372 31.0664 37.0837 31.252 37.1943C31.4408 37.3018 31.6751 37.3555 31.9551 37.3555ZM37.2676 38.0977C36.8997 38.0977 36.5661 38.0358 36.2666 37.9121C35.9704 37.7852 35.7148 37.6077 35.5 37.3799C35.2884 37.152 35.1257 36.8818 35.0117 36.5693C34.8978 36.2568 34.8408 35.915 34.8408 35.5439V35.3389C34.8408 34.9092 34.9043 34.5267 35.0312 34.1914C35.1582 33.8529 35.3307 33.5664 35.5488 33.332C35.7669 33.0977 36.0143 32.9202 36.291 32.7998C36.5677 32.6794 36.8542 32.6191 37.1504 32.6191C37.528 32.6191 37.8535 32.6842 38.127 32.8145C38.4036 32.9447 38.6299 33.127 38.8057 33.3613C38.9814 33.5924 39.1117 33.8659 39.1963 34.1816C39.2809 34.4941 39.3232 34.8359 39.3232 35.207V35.6123H35.3779V34.875H38.4199V34.8066C38.4069 34.5723 38.3581 34.3444 38.2734 34.123C38.1921 33.9017 38.0618 33.7194 37.8828 33.5762C37.7038 33.4329 37.4596 33.3613 37.1504 33.3613C36.9453 33.3613 36.7565 33.4053 36.584 33.4932C36.4115 33.5778 36.2633 33.7048 36.1396 33.874C36.016 34.0433 35.9199 34.25 35.8516 34.4941C35.7832 34.7383 35.749 35.0199 35.749 35.3389V35.5439C35.749 35.7946 35.7832 36.0306 35.8516 36.252C35.9232 36.4701 36.0257 36.6621 36.1592 36.8281C36.2959 36.9941 36.4603 37.1243 36.6523 37.2188C36.8477 37.3132 37.069 37.3604 37.3164 37.3604C37.6354 37.3604 37.9056 37.2952 38.127 37.165C38.3483 37.0348 38.542 36.8607 38.708 36.6426L39.2549 37.0771C39.141 37.2497 38.9961 37.4141 38.8203 37.5703C38.6445 37.7266 38.4281 37.8535 38.1709 37.9512C37.917 38.0488 37.6159 38.0977 37.2676 38.0977Z" fill="#1E293B"/>
</svg>
