<svg width="24" height="21" viewBox="0 0 24 21" fill="none" xmlns="http://www.w3.org/2000/svg">
<path d="M10.4464 9.14645L10.1002 9.49273L10.4392 9.84614L12.0868 11.5636C12.0872 11.564 12.0876 11.5644 12.0879 11.5648C12.3507 11.8432 12.5 12.2103 12.5 12.6V17C12.5 17.2739 12.2739 17.5 12 17.5C11.7261 17.5 11.5 17.2739 11.5 17V13V12.7731L11.3293 12.6237L8.12925 9.82371L8.11507 9.8113L8.1 9.8C7.86218 9.62163 7.7 9.29429 7.7 8.8C7.7 8.43678 7.84433 8.06278 8.15355 7.75355L10.9536 4.95355L10.9787 4.92843L11 4.9C11.1784 4.66218 11.5057 4.5 12 4.5C12.4607 4.5 12.8482 4.64432 13.2667 4.9738L15.1464 6.85355L15.1464 6.85356L15.1489 6.85598C15.9412 7.63744 16.9422 8.22422 18.1689 8.42338C18.4163 8.46516 18.6 8.68384 18.6 8.92C18.6 9.23568 18.3209 9.46825 18.0346 9.4256C16.5675 9.20265 15.3434 8.53626 14.3536 7.54645L13.5536 6.74645L13.2 6.39289L12.8464 6.74645L10.4464 9.14645ZM17 2.5C17 3.32386 16.3239 4 15.5 4C14.6761 4 14 3.32386 14 2.5C14 1.67614 14.6761 1 15.5 1C16.3239 1 17 1.67614 17 2.5ZM0.5 16C0.5 13.4761 2.47614 11.5 5 11.5C7.52386 11.5 9.5 13.4761 9.5 16C9.5 18.5239 7.52386 20.5 5 20.5C2.47614 20.5 0.5 18.5239 0.5 16ZM1 16C1 18.1761 2.82386 20 5 20C7.17614 20 9 18.1761 9 16C9 13.8239 7.17614 12 5 12C2.82386 12 1 13.8239 1 16ZM14.5 16C14.5 13.4761 16.4761 11.5 19 11.5C21.5239 11.5 23.5 13.4761 23.5 16C23.5 18.5239 21.5239 20.5 19 20.5C16.4761 20.5 14.5 18.5239 14.5 16ZM15 16C15 18.1761 16.8239 20 19 20C21.1761 20 23 18.1761 23 16C23 13.8239 21.1761 12 19 12C16.8239 12 15 13.8239 15 16Z" fill="#9CA3AF" stroke="#9CA3AF"/>
</svg>
