<svg width="24" height="24" viewBox="0 0 24 24" fill="none" xmlns="http://www.w3.org/2000/svg">
<path opacity="0.3" d="M22.76 15L22.26 14.9988C22.2506 18.9938 18.9936 22.25 15 22.25C14.9134 22.25 14.8281 22.1998 14.7853 22.124C14.7419 22.0472 14.7439 21.9509 14.7871 21.88L14.7871 21.88L14.7888 21.8772L15.8388 20.1272L15.8388 20.1273L15.8419 20.1219C15.9062 20.0117 16.0552 19.9644 16.1881 20.0419C16.2977 20.1058 16.3452 20.2537 16.2693 20.3861L16.0012 20.8328L15.392 21.8482L16.5446 21.5767C19.5237 20.8751 21.76 18.1988 21.76 15C21.76 14.8661 21.8761 14.75 22.01 14.75C22.1439 14.75 22.26 14.8661 22.26 15H22.76ZM22.76 15C22.76 14.59 22.42 14.25 22.01 14.25C21.6 14.25 21.26 14.59 21.26 15C21.26 17.7 19.5376 20.0007 17.1403 20.8773L14.36 21.62C14.22 21.85 14.22 22.14 14.35 22.37C14.48 22.6 14.73 22.75 15 22.75C19.27 22.75 22.75 19.27 22.76 15Z" fill="#3B82F6" stroke="#3B82F6"/>
<path opacity="0.4" d="M9.2129 2.12003L9.21289 2.12003L9.21125 2.12276L8.16125 3.87276L8.16122 3.87274L8.15811 3.87807C8.09381 3.98829 7.94482 4.03564 7.81193 3.95813C7.70229 3.89417 7.65485 3.74634 7.73072 3.61395L7.99875 3.16722L8.60797 2.15185L7.45539 2.42329C4.47633 3.12488 2.24001 5.80115 2.24001 9H2.23986L2.24015 9.01219C2.24313 9.13414 2.13635 9.25 2 9.25C1.86614 9.25 1.75 9.13386 1.75 9C1.75 5.00614 5.00614 1.75 9 1.75C9.08662 1.75 9.17187 1.80024 9.21471 1.87603C9.25809 1.95278 9.25609 2.04907 9.2129 2.12003Z" fill="#3B82F6" stroke="#3B82F6"/>
<path d="M7.29053 12.5989L7.29052 12.5989L7.29299 12.6002L10.4219 14.2843C10.496 14.3309 10.5399 14.4105 10.5399 14.49C10.5399 14.5933 10.4868 14.6616 10.4387 14.6867L10.4387 14.6867L10.433 14.6897L7.29472 16.3788C7.2022 16.4275 7.1038 16.45 6.99995 16.45C6.8961 16.45 6.7977 16.4275 6.70518 16.3788L3.56692 14.6897L3.56694 14.6897L3.56124 14.6867C3.51307 14.6616 3.45996 14.5933 3.45996 14.49C3.45996 14.3867 3.51307 14.3184 3.56124 14.2933L3.56126 14.2933L3.56692 14.2902L6.70692 12.6002L6.70693 12.6003L6.70938 12.5989C6.89014 12.5003 7.10977 12.5003 7.29053 12.5989Z" fill="#3B82F6" stroke="#3B82F6"/>
<path d="M5.72638 17.8572L5.72637 17.8572L5.73056 17.8593C5.99026 17.9861 6.14593 18.2397 6.14009 18.5196L6.13998 18.5196V18.53V21.29C6.13998 21.3635 6.10278 21.4317 6.04175 21.4718C5.98766 21.5021 5.94591 21.51 5.91998 21.51C5.89991 21.51 5.86608 21.504 5.8236 21.4828L2.90359 20.0228L2.9036 20.0228L2.8994 20.0207C2.64698 19.8974 2.48999 19.6456 2.48999 19.35V16.59C2.48999 16.5162 2.52752 16.4478 2.58903 16.4078C2.6657 16.3643 2.7439 16.366 2.80638 16.3972L2.80638 16.3972L5.72638 17.8572Z" fill="#3B82F6" stroke="#3B82F6"/>
<path d="M11.66 15.98C11.45 15.85 11.19 15.84 10.96 15.95L8.03996 17.41C7.60996 17.62 7.34998 18.05 7.34998 18.53V21.29C7.34998 21.54 7.47997 21.77 7.68997 21.9C7.80997 21.97 7.93998 22.01 8.06998 22.01C8.17998 22.01 8.28997 21.98 8.38997 21.93L11.31 20.47C11.74 20.26 12 19.83 12 19.35V16.59C12 16.34 11.87 16.11 11.66 15.98Z" fill="#3B82F6"/>
<path d="M20.67 3.83001L17.53 2.14C17.2 1.96 16.8 1.96 16.47 2.14L13.33 3.83001C13.1 3.95001 12.96 4.19996 12.96 4.46996C12.96 4.73996 13.1 4.98998 13.33 5.10998L16.47 6.79998C16.64 6.88998 16.82 6.92998 17 6.92998C17.18 6.92998 17.36 6.88998 17.53 6.79998L20.67 5.10998C20.9 4.98998 21.0399 4.73996 21.0399 4.46996C21.0399 4.18996 20.89 3.95001 20.67 3.83001Z" fill="#3B82F6"/>
<path d="M15.95 7.37999L13.03 5.91997C12.81 5.80997 12.55 5.82 12.33 5.95C12.12 6.08 11.99 6.30999 11.99 6.55999V9.32C11.99 9.8 12.25 10.23 12.68 10.44L15.6 11.9C15.7 11.95 15.81 11.98 15.92 11.98C16.05 11.98 16.18 11.94 16.3 11.87C16.51 11.74 16.64 11.51 16.64 11.26V8.49999C16.65 8.01999 16.38 7.58999 15.95 7.37999Z" fill="#3B82F6"/>
<path d="M21.66 5.95C21.45 5.82 21.19 5.80997 20.96 5.91997L18.04 7.37999C17.61 7.58999 17.35 8.01999 17.35 8.49999V11.26C17.35 11.51 17.48 11.74 17.69 11.87C17.81 11.94 17.94 11.98 18.07 11.98C18.18 11.98 18.29 11.95 18.39 11.9L21.31 10.44C21.74 10.23 22 9.8 22 9.32V6.55999C22 6.30999 21.87 6.08 21.66 5.95Z" fill="#3B82F6"/>
</svg>
