<svg width="24" height="24" viewBox="0 0 24 24" fill="none" xmlns="http://www.w3.org/2000/svg">
<path d="M12 16.5C14.4853 16.5 16.5 14.4853 16.5 12C16.5 9.51472 14.4853 7.5 12 7.5C9.51472 7.5 7.5 9.51472 7.5 12C7.5 14.4853 9.51472 16.5 12 16.5Z" fill="#A259FF"/>
<path opacity="0.4" d="M12 5.75C11.586 5.75 11.25 5.414 11.25 5V3C11.25 2.586 11.586 2.25 12 2.25C12.414 2.25 12.75 2.586 12.75 3V5C12.75 5.414 12.414 5.75 12 5.75Z" fill="#A259FF"/>
<path opacity="0.4" d="M12 21.75C11.586 21.75 11.25 21.414 11.25 21V19C11.25 18.586 11.586 18.25 12 18.25C12.414 18.25 12.75 18.586 12.75 19V21C12.75 21.414 12.414 21.75 12 21.75Z" fill="#A259FF"/>
<path opacity="0.4" d="M5 12.75H3C2.586 12.75 2.25 12.414 2.25 12C2.25 11.586 2.586 11.25 3 11.25H5C5.414 11.25 5.75 11.586 5.75 12C5.75 12.414 5.414 12.75 5 12.75Z" fill="#A259FF"/>
<path opacity="0.4" d="M21 12.75H19C18.586 12.75 18.25 12.414 18.25 12C18.25 11.586 18.586 11.25 19 11.25H21C21.414 11.25 21.75 11.586 21.75 12C21.75 12.414 21.414 12.75 21 12.75Z" fill="#A259FF"/>
<path opacity="0.4" d="M7.04998 7.79998C6.85798 7.79998 6.66598 7.72698 6.51998 7.57998L5.10598 6.16598C4.81298 5.87298 4.81298 5.398 5.10598 5.105C5.39898 4.812 5.87399 4.812 6.16699 5.105L7.58099 6.51901C7.87399 6.81201 7.87399 7.28698 7.58099 7.57998C7.43399 7.72698 7.24198 7.79998 7.04998 7.79998Z" fill="#A259FF"/>
<path opacity="0.4" d="M18.364 19.114C18.172 19.114 17.98 19.041 17.834 18.894L16.42 17.48C16.127 17.187 16.127 16.712 16.42 16.419C16.713 16.126 17.188 16.126 17.481 16.419L18.895 17.833C19.188 18.126 19.188 18.601 18.895 18.894C18.748 19.041 18.556 19.114 18.364 19.114Z" fill="#A259FF"/>
<path opacity="0.4" d="M5.63598 19.114C5.44398 19.114 5.25198 19.041 5.10598 18.894C4.81298 18.601 4.81298 18.126 5.10598 17.833L6.51998 16.419C6.81298 16.126 7.28799 16.126 7.58099 16.419C7.87399 16.712 7.87399 17.187 7.58099 17.48L6.16699 18.894C6.01999 19.041 5.82798 19.114 5.63598 19.114Z" fill="#A259FF"/>
<path opacity="0.4" d="M16.95 7.79998C16.758 7.79998 16.566 7.72698 16.42 7.57998C16.127 7.28698 16.127 6.81201 16.42 6.51901L17.834 5.105C18.127 4.812 18.602 4.812 18.895 5.105C19.188 5.398 19.188 5.87298 18.895 6.16598L17.481 7.57998C17.333 7.72698 17.142 7.79998 16.95 7.79998Z" fill="#A259FF"/>
</svg>
