<svg width="22" height="22" viewBox="0 0 22 22" fill="none" xmlns="http://www.w3.org/2000/svg">
<path opacity="0.25" d="M6.391 0.75H15.609C17.4618 0.75 18.8507 1.29939 19.7757 2.22433C20.7006 3.14927 21.25 4.53815 21.25 6.391V15.609C21.25 17.4618 20.7006 18.8507 19.7757 19.7757C18.8507 20.7006 17.4618 21.25 15.609 21.25H6.391C4.53815 21.25 3.14927 20.7006 2.22433 19.7757C1.29939 18.8507 0.75 17.4618 0.75 15.609V6.391C0.75 4.53815 1.29939 3.14927 2.22433 2.22433C3.14927 1.29939 4.53815 0.75 6.391 0.75Z" stroke="#A259FF" stroke-width="1.5"/>
<path d="M17.941 7.55718C17.941 8.00818 17.578 8.38218 17.116 8.38218H11.341C10.89 8.38218 10.516 8.00818 10.516 7.55718C10.516 7.10618 10.89 6.73218 11.341 6.73218H17.116C17.578 6.73218 17.941 7.10618 17.941 7.55718Z" fill="#A259FF"/>
<path d="M8.767 6.48997L6.292 8.96497C6.127 9.12997 5.918 9.20697 5.709 9.20697C5.5 9.20697 5.28 9.12997 5.126 8.96497L4.301 8.13997C3.971 7.82097 3.971 7.29297 4.301 6.97397C4.62 6.65497 5.137 6.65497 5.467 6.97397L5.709 7.21597L7.601 5.32397C7.92 5.00497 8.437 5.00497 8.767 5.32397C9.086 5.64297 9.086 6.17097 8.767 6.48997Z" fill="#A259FF"/>
<path d="M17.941 15.2571C17.941 15.7081 17.578 16.0821 17.116 16.0821H11.341C10.89 16.0821 10.516 15.7081 10.516 15.2571C10.516 14.8061 10.89 14.4321 11.341 14.4321H17.116C17.578 14.4321 17.941 14.8061 17.941 15.2571Z" fill="#A259FF"/>
<path d="M8.767 14.1902L6.292 16.6652C6.127 16.8302 5.918 16.9072 5.709 16.9072C5.5 16.9072 5.28 16.8302 5.126 16.6652L4.301 15.8402C3.971 15.5212 3.971 14.9932 4.301 14.6742C4.62 14.3552 5.137 14.3552 5.467 14.6742L5.709 14.9162L7.601 13.0242C7.92 12.7052 8.437 12.7052 8.767 13.0242C9.086 13.3432 9.086 13.8712 8.767 14.1902Z" fill="#A259FF"/>
</svg>
