<svg width="24" height="24" viewBox="0 0 24 24" fill="none" xmlns="http://www.w3.org/2000/svg">
<path opacity="0.3" d="M17.48 9.99C17.48 14.1266 14.1266 17.48 9.99 17.48C5.85339 17.48 2.5 14.1266 2.5 9.99C2.5 5.85339 5.85339 2.5 9.99 2.5C14.1266 2.5 17.48 5.85339 17.48 9.99Z" fill="#A259FF" stroke="#A259FF"/>
<path d="M21.47 15.99C21.47 19.0139 19.0139 21.47 15.99 21.47C14.4207 21.47 13.0125 20.8116 12.0145 19.758C15.8987 18.9634 18.9634 15.8987 19.758 12.0145C20.8116 13.0125 21.47 14.4207 21.47 15.99Z" fill="#A259FF" stroke="#A259FF"/>
<path d="M8.8884 9.34315L11.2834 10.1814C11.6433 10.3099 11.8725 10.4851 12.0162 10.691C12.1604 10.8979 12.25 11.181 12.25 11.58C12.25 12.4073 11.6005 13.05 10.84 13.05H10.75H10.25V13.55V13.6C10.25 13.7338 10.1339 13.85 10 13.85C9.86614 13.85 9.75 13.7338 9.75 13.6V13.54V13.062L9.2725 13.0405C8.43816 13.0029 7.75 12.2912 7.75 11.4C7.75 11.2661 7.86614 11.15 8 11.15C8.13386 11.15 8.25 11.2661 8.25 11.4C8.25 11.9817 8.68246 12.55 9.33 12.55H10.83C11.4004 12.55 11.74 12.0471 11.74 11.58C11.74 11.4863 11.7371 11.3868 11.7221 11.2937C11.7065 11.1971 11.6733 11.0757 11.5901 10.9607C11.5044 10.8421 11.398 10.7752 11.3143 10.7347C11.2448 10.7011 11.168 10.6755 11.1166 10.6584C11.1148 10.6578 11.113 10.6573 11.1113 10.6567L8.70457 9.81783L8.703 9.81729C8.34509 9.69387 8.12025 9.52192 7.97985 9.31912C7.83822 9.11455 7.75 8.83153 7.75 8.42997C7.75 7.6026 8.39947 6.95997 9.16 6.95997H9.25H9.75V6.45997V6.40997C9.75 6.27045 9.86179 6.15997 10 6.15997C10.1339 6.15997 10.25 6.27612 10.25 6.40997V6.45997V6.93796L10.7275 6.95947C11.5618 6.99705 12.25 7.70874 12.25 8.59997C12.25 8.73383 12.1339 8.84997 12 8.84997C11.8661 8.84997 11.75 8.73383 11.75 8.59997C11.75 8.0182 11.3175 7.44997 10.67 7.44997H9.17C8.59957 7.44997 8.26 7.95284 8.26 8.41997C8.26 8.51367 8.26292 8.61311 8.27793 8.70626C8.2935 8.80285 8.3267 8.92428 8.40989 9.03928C8.49564 9.15782 8.60198 9.22473 8.68571 9.26523C8.75517 9.29883 8.83203 9.3244 8.88344 9.3415C8.88512 9.34206 8.88677 9.34261 8.8884 9.34315Z" fill="#A259FF" stroke="#A259FF"/>
</svg>
