<svg width="150" height="48" viewBox="0 0 150 48" fill="none" xmlns="http://www.w3.org/2000/svg">
<g clip-path="url(#clip0_1970_12313)">
<path d="M90.0731 24.1071C89.8007 24.883 89.5009 25.6929 89.174 26.5369C88.847 27.3673 88.4792 28.2045 88.0705 29.0485C87.6755 29.8925 87.2463 30.7364 86.7832 31.5804C86.32 32.4108 85.8227 33.2208 85.2914 34.0103C84.8964 34.6093 84.4877 35.181 84.0654 35.7255C83.643 36.2836 83.1799 36.7737 82.6758 37.1957C82.1854 37.6177 81.6405 37.958 81.0411 38.2166C80.4416 38.4753 79.7605 38.6046 78.9976 38.6046C78.5753 38.6046 78.2007 38.5569 77.8737 38.4617C77.5331 38.3664 77.247 38.2575 77.0155 38.1349L77.8124 36.1543C78.0031 36.2632 78.2143 36.3517 78.4459 36.4197C78.6911 36.4878 78.9567 36.5218 79.2428 36.5218C79.8831 36.5218 80.4416 36.3517 80.9184 36.0114C81.4089 35.6847 81.8516 35.2354 82.2467 34.6637C81.8108 33.1527 81.4429 31.5124 81.1432 29.7427C80.8435 27.9731 80.646 26.0945 80.5506 24.1071H83.0436C83.0573 24.6788 83.0845 25.3118 83.1254 26.006C83.1799 26.7003 83.2412 27.4149 83.3093 28.15C83.391 28.8715 83.4864 29.5862 83.5954 30.294C83.7044 31.0019 83.827 31.6553 83.9632 32.2543C84.3719 31.6008 84.7533 30.9134 85.1075 30.1919C85.4617 29.4705 85.7887 28.7558 86.0884 28.0479C86.3881 27.3265 86.6469 26.6322 86.8649 25.9652C87.0965 25.2846 87.294 24.6652 87.4575 24.1071H90.0731Z" fill="white"/>
<path d="M79.3978 26.2919C79.1254 26.1966 78.8325 26.1218 78.5192 26.0673C78.2058 26.0129 77.838 25.9856 77.4157 25.9856C77.1841 25.9856 76.9389 26.0061 76.6801 26.0469C76.4212 26.0741 76.2033 26.115 76.0262 26.1694L73.9623 34.7862H71.4897L73.9418 24.5971C74.514 24.4066 75.1338 24.2432 75.8014 24.1071C76.4689 23.9573 77.1909 23.8825 77.9674 23.8825C78.1309 23.8825 78.3148 23.8961 78.5192 23.9233C78.7235 23.9369 78.921 23.9573 79.1118 23.9846C79.3161 24.0118 79.5 24.0458 79.6635 24.0867C79.8406 24.1275 79.9905 24.1752 80.1131 24.2296L79.3978 26.2919Z" fill="white"/>
<path d="M63.8826 35.0721C63.2423 35.0721 62.6906 34.97 62.2274 34.7658C61.7642 34.548 61.3828 34.2553 61.0831 33.8878C60.797 33.5202 60.5859 33.0846 60.4496 32.581C60.3134 32.0773 60.2453 31.5328 60.2453 30.9474C60.2453 30.0354 60.4019 29.1574 60.7153 28.3134C61.0422 27.4558 61.4986 26.7071 62.0844 26.0673C62.6838 25.4139 63.4126 24.8966 64.2709 24.5154C65.1291 24.1207 66.1032 23.9233 67.193 23.9233C67.3292 23.9233 67.4927 23.9301 67.6834 23.9437C67.8742 23.9573 68.0853 23.9914 68.3169 24.0458L69.4408 19.3494L72.0156 18.941L69.216 30.5186C69.1479 30.8317 69.0934 31.1516 69.0526 31.4783C69.0253 31.7914 69.0117 32.0909 69.0117 32.3768C69.0117 32.7443 69.0457 33.1119 69.1139 33.4794C69.182 33.8469 69.291 34.2281 69.4408 34.6229L67.2339 34.9496C67.084 34.6637 66.9546 34.3166 66.8456 33.9082C66.5051 34.2077 66.0896 34.4799 65.5991 34.725C65.1087 34.9564 64.5365 35.0721 63.8826 35.0721ZM67.8265 26.0469C67.5676 25.9924 67.2543 25.9652 66.8865 25.9652C66.2598 25.9652 65.6877 26.1013 65.17 26.3736C64.6523 26.6322 64.2096 26.9861 63.8418 27.4354C63.4739 27.871 63.1879 28.3746 62.9835 28.9464C62.7928 29.5181 62.6974 30.1103 62.6974 30.7228C62.6974 31.0359 62.7247 31.3286 62.7792 31.6009C62.8473 31.8731 62.9494 32.1113 63.0857 32.3155C63.2219 32.5197 63.399 32.6831 63.617 32.8056C63.8486 32.9281 64.1278 32.9893 64.4548 32.9893C64.8907 32.9893 65.2722 32.9009 65.5991 32.7239C65.9397 32.5469 66.2598 32.3019 66.5595 31.9888C66.5732 31.7029 66.6004 31.4035 66.6413 31.0904C66.6958 30.7773 66.7571 30.471 66.8252 30.1715L67.8265 26.0469Z" fill="white"/>
<path d="M50.7335 24.5563C51.2784 24.393 51.8983 24.2432 52.593 24.1071C53.3014 23.9573 54.0711 23.8825 54.9021 23.8825C56.1554 23.8825 57.075 24.1888 57.6608 24.8013C58.2466 25.4139 58.5395 26.2375 58.5395 27.272C58.5395 27.5579 58.5122 27.8642 58.4577 28.1909C58.4169 28.504 58.3624 28.8307 58.2943 29.171L56.9456 34.7862H54.473L55.7399 29.4365C55.8081 29.137 55.8762 28.8307 55.9443 28.5176C56.0124 28.2045 56.0533 27.905 56.0669 27.6192C56.0805 27.1427 55.9647 26.748 55.7195 26.4349C55.4879 26.1218 55.0247 25.9652 54.33 25.9652C53.7442 25.9652 53.2401 26.0265 52.8178 26.149L50.7539 34.7862H48.2813L50.7335 24.5563Z" fill="white"/>
<path d="M47.6196 24.1071L46.1075 30.4574C46.0393 30.7705 45.9849 31.0836 45.944 31.3967C45.9167 31.7098 45.9031 32.0228 45.9031 32.3359C45.9031 32.7307 45.9304 33.1187 45.9849 33.4998C46.053 33.881 46.1619 34.2553 46.3118 34.6229L44.1049 34.9496C44.0231 34.7998 43.9482 34.6365 43.8801 34.4595C43.8256 34.2689 43.7711 34.0784 43.7166 33.8878C43.376 34.16 42.9537 34.4255 42.4497 34.6841C41.9456 34.9292 41.3598 35.0517 40.6923 35.0517C40.0929 35.0517 39.582 34.9632 39.1597 34.7862C38.7374 34.6093 38.39 34.371 38.1176 34.0716C37.8587 33.7585 37.668 33.3977 37.5454 32.9893C37.4364 32.5673 37.3819 32.1249 37.3819 31.6621C37.3819 31.0631 37.4637 30.4165 37.6271 29.7223L38.9758 24.1071H41.4484L40.1201 29.661C39.943 30.3689 39.8545 30.9474 39.8545 31.3967C39.8545 31.6145 39.8749 31.8187 39.9158 32.0092C39.9567 32.1998 40.0248 32.37 40.1201 32.5197C40.2291 32.6558 40.3722 32.7647 40.5493 32.8464C40.74 32.9281 40.9716 32.9689 41.244 32.9689C41.6936 32.9689 42.0955 32.8804 42.4497 32.7035C42.8039 32.5129 43.1308 32.2611 43.4305 31.948C43.4714 31.3626 43.5668 30.7637 43.7166 30.1511L45.147 24.1071H47.6196Z" fill="white"/>
<path d="M34.6311 30.6412C34.5902 30.7909 34.5494 31.036 34.5085 31.3763C34.4676 31.7166 34.4472 32.0365 34.4472 32.336C34.4472 32.7308 34.4812 33.1187 34.5493 33.4999C34.6175 33.8674 34.7264 34.2418 34.8763 34.6229L32.6694 34.9496C32.5059 34.6229 32.3765 34.2758 32.2811 33.9083C31.9405 34.2077 31.5182 34.48 31.0142 34.725C30.5237 34.9564 29.9652 35.0721 29.3385 35.0721C28.6983 35.0721 28.1465 34.97 27.6834 34.7659C27.2338 34.548 26.866 34.2554 26.5799 33.8878C26.2938 33.5067 26.0826 33.0643 25.9464 32.5606C25.8102 32.0569 25.7421 31.5124 25.7421 30.9271C25.7421 29.9333 25.9192 29.0077 26.2734 28.1501C26.6276 27.2925 27.118 26.5506 27.7447 25.9244C28.3849 25.2982 29.141 24.8082 30.0129 24.4542C30.8848 24.0867 31.8384 23.9029 32.8737 23.9029C33.405 23.9029 33.9363 23.9506 34.4676 24.0459C35.0125 24.1275 35.5575 24.2909 36.1024 24.5359L34.6311 30.6412ZM33.2824 26.0265C33.0236 25.972 32.7307 25.9448 32.4037 25.9448C31.7907 25.9448 31.2253 26.0809 30.7077 26.3532C30.19 26.6118 29.7404 26.9658 29.359 27.415C28.9912 27.8506 28.7051 28.3543 28.5007 28.926C28.2964 29.4977 28.1942 30.0967 28.1942 30.7229C28.1942 31.036 28.2215 31.3286 28.276 31.6009C28.3304 31.8732 28.419 32.1114 28.5416 32.3156C28.6778 32.5198 28.8549 32.6831 29.0729 32.8056C29.2909 32.9281 29.5701 32.9894 29.9107 32.9894C30.3466 32.9894 30.7281 32.9009 31.055 32.7239C31.3956 32.5334 31.709 32.2815 31.995 31.9684C32.0087 31.6145 32.0359 31.281 32.0768 30.9679C32.1313 30.6548 32.1994 30.3417 32.2811 30.0286L33.2824 26.0265Z" fill="white"/>
<path d="M24.736 32.6218L24.2251 34.7863H15.377L18.7691 20.6359H21.3438L18.4626 32.6218H24.736Z" fill="white"/>
<path d="M69.5514 46.747C69.474 46.5599 69.3697 46.3217 69.2418 46.0326C69.114 45.7434 68.976 45.4304 68.8313 45.0936C68.6833 44.7568 68.5285 44.4098 68.3602 44.0559C68.192 43.6987 68.0372 43.3619 67.8891 43.0455C67.7411 42.7291 67.6031 42.4433 67.4752 42.195C67.3474 41.9432 67.2464 41.7527 67.169 41.62C67.0849 42.542 67.0143 43.5422 66.9604 44.6207C66.9066 45.6957 66.8595 46.7844 66.8225 47.8799H65.7188C65.749 47.1757 65.786 46.4646 65.8231 45.7502C65.8601 45.0357 65.9072 44.3281 65.9577 43.6375C66.0081 42.9469 66.062 42.2698 66.1192 41.6132C66.1764 40.9566 66.2403 40.334 66.311 39.7455H67.2969C67.5055 40.0891 67.731 40.4973 67.9699 40.9668C68.2088 41.4363 68.4511 41.9262 68.69 42.4399C68.9289 42.9537 69.1611 43.464 69.3865 43.9777C69.612 44.4914 69.8172 44.9575 70.0023 45.3794C70.1874 44.9575 70.3927 44.488 70.6181 43.9777C70.8436 43.464 71.0757 42.9537 71.3146 42.4399C71.5536 41.9262 71.7958 41.4363 72.0347 40.9668C72.2737 40.4973 72.4991 40.0891 72.7077 39.7455H73.6937C73.9561 42.3685 74.1547 45.08 74.2859 47.8833H73.1822C73.1418 46.7878 73.0981 45.7026 73.0442 44.6241C72.9904 43.549 72.9197 42.5488 72.8356 41.6234C72.7582 41.7561 72.6573 41.95 72.5294 42.1984C72.4015 42.4501 72.2636 42.7325 72.1155 43.0489C71.9674 43.3653 71.8127 43.7021 71.6444 44.0593C71.4762 44.4166 71.3214 44.7636 71.1733 45.097C71.0253 45.4338 70.8873 45.7468 70.7594 46.036C70.6316 46.3251 70.5306 46.5633 70.4499 46.7504H69.5447L69.5514 46.747Z" fill="white"/>
<path d="M77.9697 41.6184C78.4038 41.6184 78.7706 41.6762 79.0667 41.7885C79.3628 41.9008 79.6051 42.0641 79.7868 42.2716C79.9685 42.4791 80.0997 42.7241 80.1771 43.0099C80.2545 43.2956 80.2915 43.612 80.2915 43.9556V47.7728C80.1973 47.7898 80.0694 47.8102 79.9012 47.8374C79.733 47.8647 79.5479 47.8919 79.3393 47.9123C79.1306 47.9327 78.9052 47.9565 78.6595 47.9769C78.4139 47.9973 78.175 48.0075 77.9327 48.0075C77.5929 48.0075 77.2766 47.9735 76.9905 47.9021C76.7045 47.8306 76.4555 47.7218 76.2469 47.5687C76.0383 47.4156 75.8767 47.2149 75.759 46.9631C75.6412 46.7113 75.584 46.412 75.584 46.0581C75.584 45.7043 75.6513 45.4322 75.7859 45.1906C75.9205 44.9491 76.1056 44.7517 76.3377 44.602C76.5699 44.4524 76.8425 44.3435 77.152 44.272C77.4616 44.2006 77.788 44.1666 78.1279 44.1666C78.2356 44.1666 78.35 44.1734 78.4644 44.1836C78.5821 44.1938 78.6898 44.2108 78.7941 44.2312C78.8985 44.2516 78.9893 44.2686 79.0667 44.2856C79.1441 44.3027 79.1979 44.3129 79.2282 44.3197V44.0135C79.2282 43.8332 79.208 43.6563 79.171 43.4794C79.134 43.3024 79.0633 43.1459 78.9624 43.0099C78.8614 42.8738 78.7235 42.7615 78.5519 42.6799C78.3769 42.5982 78.1514 42.5574 77.8721 42.5574C77.5155 42.5574 77.2059 42.5846 76.9367 42.6322C76.6709 42.6833 76.469 42.7377 76.3377 42.7921L76.2099 41.8872C76.3478 41.8259 76.58 41.7647 76.9064 41.7069C77.2328 41.649 77.5828 41.6184 77.963 41.6184H77.9697ZM78.0639 47.089C78.3197 47.089 78.5451 47.0822 78.7437 47.072C78.9422 47.0618 79.1071 47.0379 79.2383 47.0073V45.1872C79.1609 45.1498 79.0364 45.1158 78.8614 45.0885C78.6865 45.0613 78.4778 45.0477 78.2288 45.0477C78.0673 45.0477 77.8923 45.0579 77.7106 45.0817C77.5289 45.1056 77.3607 45.1532 77.2126 45.228C77.0612 45.3029 76.9367 45.4049 76.8357 45.5342C76.7348 45.6635 76.6843 45.8336 76.6843 46.0445C76.6843 46.4358 76.8088 46.7079 77.0545 46.861C77.3035 47.0141 77.64 47.089 78.0639 47.089Z" fill="white"/>
<path d="M84.2974 41.6375C84.3916 41.6375 84.4959 41.6443 84.617 41.6545C84.7382 41.6647 84.8559 41.6817 84.9704 41.7021C85.0848 41.7225 85.1924 41.7429 85.29 41.7599C85.3876 41.7803 85.4583 41.7974 85.5054 41.8144L85.3203 42.7669C85.2362 42.7363 85.0949 42.6989 84.8963 42.6547C84.6978 42.6105 84.4454 42.59 84.1358 42.59C83.9339 42.59 83.7354 42.6105 83.5369 42.6547C83.3384 42.6989 83.2105 42.7261 83.1466 42.7431V47.8735H82.0664V42.0253C82.3221 41.93 82.6384 41.8416 83.0187 41.7599C83.3989 41.6783 83.8229 41.6375 84.2974 41.6375Z" fill="white"/>
<path d="M87.4967 41.7665H89.7849V42.6817H87.4967V45.4986C87.4967 45.8048 87.5203 46.0566 87.5674 46.2573C87.6145 46.458 87.6851 46.6145 87.776 46.7268C87.8702 46.8391 87.9846 46.9207 88.1259 46.9683C88.2639 47.016 88.4288 47.0398 88.6139 47.0398C88.9403 47.0398 89.1994 47.0024 89.3979 46.9275C89.5964 46.8527 89.7344 46.8016 89.8118 46.7676L90.0204 47.6726C89.9127 47.727 89.7209 47.7951 89.4517 47.8767C89.1792 47.9584 88.8696 47.9992 88.523 47.9992C88.1125 47.9992 87.7726 47.9447 87.5068 47.8393C87.241 47.7338 87.0256 47.5739 86.8607 47.363C86.6992 47.1521 86.5848 46.8901 86.5175 46.5805C86.4502 46.2709 86.4199 45.9137 86.4199 45.5054V40.0587L87.5001 39.8716V41.7631L87.4967 41.7665Z" fill="white"/>
<path d="M10.4934 47.871H7.1285V29.5473H1.68404C0.937024 29.5473 0.280861 29.0506 0.0688706 28.326C-0.14312 27.6013 0.146264 26.8257 0.772142 26.4174L18.6938 14.7618L20.5142 17.623L7.41116 26.1452H8.81097C9.73969 26.1452 10.4934 26.9073 10.4934 27.8463V47.871Z" fill="white"/>
<path d="M24.9413 12.5716V10.6664C26.9535 9.95881 28.4004 8.02642 28.4004 5.75382C28.4004 2.88926 26.0955 0.55542 23.2588 0.55542C20.4222 0.55542 18.1172 2.88585 18.1172 5.75382C18.1172 6.6928 18.8709 7.45487 19.7997 7.45487C20.7284 7.45487 21.4821 6.6928 21.4821 5.75382C21.4821 4.76381 22.2796 3.95751 23.2588 3.95751C24.238 3.95751 25.0355 4.76381 25.0355 5.75382C25.0355 6.74383 24.238 7.55012 23.2588 7.55012C22.2796 7.55012 21.5763 8.31219 21.5763 9.25117V13.4902C21.5763 14.0651 21.8624 14.5993 22.3368 14.9123L30.914 20.5904H37.0584L24.9413 12.5682V12.5716Z" fill="white"/>
</g>
<rect x="98.0156" y="25.8038" width="51.985" height="22.1962" rx="2.37164" fill="white"/>
<path d="M107.887 37.6116L105.886 37.6064L106.086 36.4692L107.934 36.4744C108.212 36.4744 108.464 36.4271 108.693 36.3323C108.924 36.234 109.115 36.0901 109.266 35.9006C109.417 35.7075 109.512 35.4671 109.551 35.1793C109.586 34.9371 109.568 34.7213 109.498 34.5317C109.431 34.3387 109.316 34.186 109.151 34.0737C108.989 33.9579 108.782 33.8947 108.529 33.8842L107.008 33.8789L105.876 40.402H104.46L105.786 32.7364L108.571 32.7417C109.052 32.7522 109.48 32.8558 109.856 33.0523C110.235 33.2454 110.526 33.5209 110.73 33.8789C110.934 34.2334 111.014 34.6633 110.972 35.1688C110.927 35.7233 110.756 36.1831 110.461 36.5481C110.167 36.9097 109.793 37.1782 109.34 37.3537C108.887 37.5256 108.403 37.6116 107.887 37.6116ZM113.194 35.9374L112.42 40.402H111.062L112.051 34.7055H113.336L113.194 35.9374ZM115.052 34.6581L114.889 35.9585C114.808 35.9444 114.726 35.9322 114.642 35.9216C114.557 35.9111 114.473 35.9058 114.389 35.9058C114.178 35.9023 113.989 35.9304 113.82 35.9901C113.655 36.0462 113.51 36.1305 113.383 36.2428C113.257 36.3551 113.152 36.492 113.068 36.6534C112.983 36.8114 112.918 36.9886 112.873 37.1852L112.578 37.1483C112.613 36.8746 112.673 36.5885 112.757 36.2902C112.841 35.9883 112.959 35.7075 113.11 35.4478C113.261 35.1881 113.454 34.9792 113.689 34.8213C113.927 34.6598 114.215 34.5809 114.552 34.5844C114.636 34.5844 114.719 34.5914 114.8 34.6054C114.884 34.6195 114.968 34.637 115.052 34.6581ZM114.942 37.6432L114.958 37.5327C115 37.1325 115.096 36.7552 115.247 36.4007C115.402 36.0427 115.603 35.7268 115.853 35.4531C116.105 35.1793 116.404 34.9669 116.748 34.816C117.095 34.6616 117.481 34.5896 117.906 34.6002C118.313 34.6072 118.664 34.6914 118.959 34.8529C119.257 35.0108 119.499 35.2249 119.685 35.4952C119.875 35.7619 120.007 36.0673 120.08 36.4113C120.157 36.7517 120.179 37.1115 120.143 37.4905L120.133 37.6064C120.087 38.003 119.987 38.3785 119.833 38.733C119.678 39.084 119.475 39.3946 119.222 39.6649C118.969 39.9352 118.671 40.1458 118.327 40.2967C117.983 40.4476 117.601 40.5178 117.179 40.5073C116.776 40.5003 116.425 40.4178 116.126 40.2598C115.832 40.1019 115.589 39.8913 115.4 39.6281C115.214 39.3613 115.082 39.0577 115.005 38.7172C114.931 38.3768 114.91 38.0188 114.942 37.6432ZM116.311 37.5327L116.3 37.6485C116.286 37.8275 116.283 38.0188 116.29 38.2223C116.3 38.4259 116.337 38.6172 116.4 38.7962C116.463 38.9752 116.563 39.1226 116.7 39.2385C116.837 39.3508 117.021 39.4104 117.253 39.4175C117.502 39.4245 117.716 39.3753 117.895 39.27C118.078 39.1612 118.229 39.0173 118.348 38.8383C118.467 38.6558 118.562 38.4558 118.632 38.2381C118.703 38.0205 118.75 37.8082 118.775 37.6011L118.785 37.4905C118.803 37.3115 118.806 37.1185 118.796 36.9114C118.785 36.7043 118.748 36.5113 118.685 36.3323C118.622 36.1498 118.522 36.0006 118.385 35.8848C118.248 35.7654 118.062 35.7023 117.827 35.6952C117.578 35.6847 117.362 35.7356 117.179 35.8479C117 35.9602 116.851 36.1077 116.732 36.2902C116.613 36.4727 116.518 36.6745 116.448 36.8956C116.381 37.1132 116.335 37.3256 116.311 37.5327ZM122.581 39.2858L124.571 34.7055H126.029L123.239 40.402H122.349L122.581 39.2858ZM122.349 34.7055L122.934 39.428L122.823 40.402H121.981L120.965 34.7055H122.349ZM128.188 34.7055L127.204 40.402H125.84L126.83 34.7055H128.188ZM126.998 33.2418C126.995 33.0207 127.067 32.8417 127.214 32.7048C127.365 32.5644 127.549 32.4925 127.767 32.489C127.974 32.4855 128.153 32.5486 128.304 32.6785C128.458 32.8049 128.536 32.9769 128.536 33.1945C128.539 33.4121 128.465 33.5893 128.314 33.7262C128.163 33.8631 127.981 33.9333 127.767 33.9368C127.56 33.9403 127.381 33.8789 127.23 33.7525C127.079 33.6262 127.002 33.4559 126.998 33.2418ZM132.016 39.1121L133.195 32.3152H134.564L133.163 40.402H131.937L132.016 39.1121ZM128.736 37.6643L128.746 37.5485C128.788 37.201 128.869 36.85 128.988 36.4955C129.108 36.141 129.271 35.8181 129.478 35.5268C129.689 35.2355 129.945 35.0038 130.247 34.8318C130.548 34.6598 130.905 34.5809 131.315 34.5949C131.673 34.6089 131.97 34.7055 132.205 34.8845C132.44 35.0635 132.623 35.2951 132.753 35.5794C132.886 35.8602 132.977 36.1638 133.026 36.4902C133.076 36.8131 133.093 37.122 133.079 37.4168L133.042 37.7222C132.986 38.0416 132.891 38.368 132.758 38.7014C132.628 39.0314 132.458 39.335 132.247 39.6123C132.037 39.8895 131.786 40.1124 131.494 40.2809C131.203 40.4459 130.873 40.5231 130.505 40.5125C130.126 40.502 129.813 40.409 129.567 40.2335C129.322 40.0545 129.132 39.8246 128.999 39.5438C128.869 39.2595 128.785 38.9542 128.746 38.6277C128.708 38.2978 128.704 37.9767 128.736 37.6643ZM130.115 37.5432L130.104 37.6538C130.087 37.8187 130.078 38.0012 130.078 38.2013C130.078 38.3978 130.101 38.5874 130.147 38.7699C130.196 38.9489 130.282 39.0981 130.405 39.2174C130.527 39.3332 130.699 39.3964 130.92 39.4069C131.194 39.4175 131.433 39.356 131.637 39.2227C131.844 39.0858 132.012 38.9085 132.142 38.6909C132.272 38.4733 132.361 38.2417 132.41 37.996L132.532 37.1641C132.546 36.9992 132.54 36.8324 132.516 36.664C132.491 36.492 132.442 36.3358 132.368 36.1954C132.295 36.0515 132.193 35.9357 132.063 35.8479C131.933 35.7567 131.772 35.7093 131.579 35.7058C131.329 35.6952 131.117 35.7479 130.942 35.8637C130.77 35.976 130.627 36.1252 130.515 36.3112C130.403 36.4937 130.315 36.6938 130.252 36.9114C130.189 37.129 130.143 37.3396 130.115 37.5432ZM136.98 40.5073C136.591 40.5003 136.243 40.4248 135.938 40.2809C135.632 40.137 135.378 39.9404 135.174 39.6912C134.971 39.442 134.822 39.1525 134.727 38.8225C134.636 38.4926 134.604 38.1399 134.632 37.7643L134.653 37.5485C134.692 37.1589 134.785 36.7868 134.932 36.4323C135.083 36.0743 135.283 35.7567 135.532 35.4794C135.785 35.1986 136.082 34.9792 136.422 34.8213C136.766 34.6633 137.147 34.5896 137.565 34.6002C137.961 34.6072 138.298 34.6897 138.576 34.8476C138.853 35.002 139.074 35.2109 139.239 35.4741C139.407 35.7339 139.521 36.0287 139.581 36.3586C139.641 36.6885 139.651 37.0325 139.613 37.3905L139.534 37.9749H135.196L135.348 37.0167L138.312 37.022L138.333 36.9009C138.365 36.6938 138.354 36.499 138.302 36.3165C138.253 36.134 138.16 35.9866 138.023 35.8742C137.889 35.7584 137.709 35.697 137.48 35.69C137.228 35.683 137.014 35.7374 136.838 35.8532C136.663 35.9655 136.517 36.1147 136.401 36.3007C136.289 36.4867 136.201 36.6903 136.138 36.9114C136.075 37.129 136.031 37.3414 136.006 37.5485L135.985 37.759C135.968 37.9556 135.973 38.1504 136.001 38.3434C136.033 38.5365 136.091 38.712 136.175 38.8699C136.263 39.0279 136.384 39.156 136.538 39.2543C136.692 39.3525 136.884 39.4052 137.112 39.4122C137.4 39.4192 137.663 39.3613 137.902 39.2385C138.144 39.1121 138.363 38.9471 138.56 38.7436L139.197 39.4648C139.035 39.7035 138.835 39.9018 138.597 40.0598C138.358 40.2142 138.098 40.3283 137.817 40.402C137.54 40.4757 137.261 40.5108 136.98 40.5073ZM142.129 35.9374L141.355 40.402H139.997L140.987 34.7055H142.271L142.129 35.9374ZM143.988 34.6581L143.825 35.9585C143.744 35.9444 143.661 35.9322 143.577 35.9216C143.493 35.9111 143.409 35.9058 143.324 35.9058C143.114 35.9023 142.924 35.9304 142.756 35.9901C142.591 36.0462 142.445 36.1305 142.319 36.2428C142.192 36.3551 142.087 36.492 142.003 36.6534C141.919 36.8114 141.854 36.9886 141.808 37.1852L141.513 37.1483C141.548 36.8746 141.608 36.5885 141.692 36.2902C141.777 35.9883 141.894 35.7075 142.045 35.4478C142.196 35.1881 142.389 34.9792 142.624 34.8213C142.863 34.6598 143.151 34.5809 143.488 34.5844C143.572 34.5844 143.654 34.5914 143.735 34.6054C143.819 34.6195 143.903 34.637 143.988 34.6581Z" fill="#A259FF"/>
<defs>
<clipPath id="clip0_1970_12313">
<rect width="90.1096" height="47.4422" fill="white" transform="translate(0 0.557861)"/>
</clipPath>
</defs>
</svg>
